<?xml version="1.0" encoding="UTF-8"?><svg fill-opacity="1" color-rendering="auto" color-interpolation="auto" text-rendering="auto" stroke="black" stroke-linecap="square" width="1016" stroke-miterlimit="10" shape-rendering="auto" stroke-opacity="1" fill="black" stroke-dasharray="none" font-weight="normal" stroke-width="1" height="472" font-family="'Dialog'" font-style="normal" stroke-linejoin="miter" font-size="12px" stroke-dashoffset="0" image-rendering="auto" xmlns="http://www.w3.org/2000/svg">
  <!--Generated by the Batik Graphics2D SVG Generator-->
  <defs id="genericDefs"/>
  <g>
    <g fill="white" font-size="10px" stroke="white">
      <rect x="0" width="1016" height="472" y="0" stroke="none"/>
    </g>
    <g font-size="10px" fill="white" text-rendering="geometricPrecision" color-rendering="optimizeQuality" image-rendering="optimizeQuality" stroke="white" color-interpolation="linearRGB">
      <rect x="0" width="916" height="372" y="0" stroke="none"/>
    </g>
    <g stroke-linecap="butt" font-size="10px" fill="rgb(61,99,128)" text-rendering="geometricPrecision" color-rendering="optimizeQuality" image-rendering="optimizeQuality" stroke="rgb(61,99,128)" color-interpolation="linearRGB" stroke-miterlimit="2">
      <line y2="160" fill="none" x1="560" x2="688" y1="160"/>
      <g xmlns:sodipodi="http://sodipodi.sourceforge.net/DTD/sodipodi-0.dtd" xmlns:rdf="http://www.w3.org/1999/02/22-rdf-syntax-ns#" xmlns:inkscape="http://www.inkscape.org/namespaces/inkscape" xmlns:dc="http://purl.org/dc/elements/1.1/" xmlns:cc="http://creativecommons.org/ns#" filename="ui/images/hop-arrow-default.svg" transform="translate(635 152) scale(1 1) rotate(90 8 8)" stroke="none">
            
        <path fill="#0e3a5a" d="m 8,0 -4,16 4,-2 4,2"/>
        
      </g>
      <line y2="160" fill="none" x1="688" x2="832" y1="160"/>
      <g xmlns:sodipodi="http://sodipodi.sourceforge.net/DTD/sodipodi-0.dtd" xmlns:rdf="http://www.w3.org/1999/02/22-rdf-syntax-ns#" xmlns:inkscape="http://www.inkscape.org/namespaces/inkscape" xmlns:dc="http://purl.org/dc/elements/1.1/" xmlns:cc="http://creativecommons.org/ns#" filename="ui/images/hop-arrow-default.svg" transform="translate(773 152) scale(1 1) rotate(90 8 8)" stroke="none">
            
        <path fill="#0e3a5a" d="m 8,0 -4,16 4,-2 4,2"/>
        
      </g>
      <line y2="288" fill="none" x1="832" x2="832" y1="160"/>
      <g xmlns:sodipodi="http://sodipodi.sourceforge.net/DTD/sodipodi-0.dtd" xmlns:rdf="http://www.w3.org/1999/02/22-rdf-syntax-ns#" xmlns:inkscape="http://www.inkscape.org/namespaces/inkscape" xmlns:dc="http://purl.org/dc/elements/1.1/" xmlns:cc="http://creativecommons.org/ns#" filename="ui/images/hop-arrow-default.svg" transform="translate(824 236) scale(1 1) rotate(180 8 8)" stroke="none">
            
        <path fill="#0e3a5a" d="m 8,0 -4,16 4,-2 4,2"/>
        
      </g>
      <line y2="160" fill="none" x1="368" x2="560" y1="160"/>
      <g xmlns:sodipodi="http://sodipodi.sourceforge.net/DTD/sodipodi-0.dtd" xmlns:rdf="http://www.w3.org/1999/02/22-rdf-syntax-ns#" xmlns:inkscape="http://www.inkscape.org/namespaces/inkscape" xmlns:dc="http://purl.org/dc/elements/1.1/" xmlns:cc="http://creativecommons.org/ns#" filename="ui/images/hop-arrow-default.svg" transform="translate(484 152) scale(1 1) rotate(90 8 8)" stroke="none">
            
        <path fill="#0e3a5a" d="m 8,0 -4,16 4,-2 4,2"/>
        
      </g>
      <rect x="351" y="143" fill="white" width="33" rx="4" ry="4" height="33" stroke="none"/>
      <g xmlns:sodipodi="http://sodipodi.sourceforge.net/DTD/sodipodi-0.dtd" xmlns:rdf="http://www.w3.org/1999/02/22-rdf-syntax-ns#" xmlns:inkscape="http://www.inkscape.org/namespaces/inkscape" xmlns:dc="http://purl.org/dc/elements/1.1/" xmlns:cc="http://creativecommons.org/ns#" filename="rowgenerator.svg" transform="translate(352 144) scale(0.762 0.762) rotate(0 21 21)" stroke="none">
            
        <g>
                  
          <path fill="#0E3A5A" d="M37.716,33.251c0.02-0.375-0.003-0.755-0.071-1.137l1.308-0.956l-0.177-0.464   c-0.078-0.205-0.171-0.4-0.268-0.596l-0.228-0.455l-1.552,0.355c-0.104-0.133-0.224-0.264-0.346-0.395   c-0.143-0.154-0.279-0.289-0.435-0.423l0.383-1.557l-0.432-0.242c-0.198-0.11-0.397-0.209-0.604-0.298l-0.469-0.203l-0.952,1.265   c-0.364-0.084-0.74-0.126-1.119-0.127l-0.711-1.435l-0.48,0.086c-0.22,0.039-0.441,0.085-0.656,0.148l-0.486,0.144l0.067,1.591   c-0.317,0.164-0.627,0.374-0.926,0.626l-1.476-0.644l-0.312,0.383c-0.142,0.175-0.271,0.356-0.393,0.542l-0.278,0.426l1.08,1.165   c-0.148,0.351-0.256,0.712-0.318,1.07l-1.549,0.458l0.005,0.491c0.002,0.22,0.016,0.439,0.041,0.658l0.059,0.508l1.591,0.197   c0.112,0.371,0.261,0.719,0.447,1.04l-0.909,1.351l0.982,1.054l1.464-0.695l0.058-0.039c0.312,0.203,0.651,0.373,1.018,0.507   l0.176,1.612l0.491,0.078c0.214,0.033,0.428,0.052,0.646,0.064l0.509,0.027l0.464-1.52c0.404-0.049,0.785-0.14,1.096-0.266   l1.179,1.121l0.425-0.26c0.188-0.114,0.37-0.244,0.549-0.379l0.409-0.309l-0.625-1.44c0.252-0.271,0.472-0.571,0.667-0.911   l1.602,0.1l0.162-0.466c0.074-0.211,0.138-0.426,0.19-0.643l0.12-0.502L37.716,33.251z M32.676,36.634   c-1.988,0-3.6-1.612-3.6-3.601s1.611-3.6,3.6-3.6s3.601,1.611,3.601,3.6S34.664,36.634,32.676,36.634z"/>
                  
          <circle fill="#FFFFFF" r="3.6" cx="32.676" cy="33.033"/>
                  
          <polygon fill="#FFFFFF" points="28.857,23.352 29.259,22.95 8.857,22.95 8.857,29.7 22.509,29.7 27.156,25.052  "/>
                  
          <polygon fill="#FFFFFF" points="8.857,14.737 8.857,22.149 30.059,22.149 31.156,21.052 31.156,14.737  "/>
                  
          <rect x="8.857" fill="#C9E8FB" width="22.3" y="7.399" height="6.537"/>
                  
          <path fill="#0E3A5A" d="M8.857,22.95h20.402l0.801-0.801H8.857v-7.412h22.3v6.315l1.7-1.7V5.7h-25.7v25.699h13.653l1.699-1.699   H8.857V22.95z M8.857,7.399h22.3v6.537h-22.3V7.399z"/>
              
        </g>
        
      </g>
      <rect x="351" y="143" fill="none" width="33" rx="4" ry="4" height="33"/>
      <text fill="black" x="336" xml:space="preserve" y="194" stroke="none">Generate rows</text>
      <rect x="543" y="143" fill="white" width="33" rx="4" ry="4" height="33" stroke="none"/>
      <g xmlns:sodipodi="http://sodipodi.sourceforge.net/DTD/sodipodi-0.dtd" xmlns:rdf="http://www.w3.org/1999/02/22-rdf-syntax-ns#" xmlns:inkscape="http://www.inkscape.org/namespaces/inkscape" xmlns:dc="http://purl.org/dc/elements/1.1/" xmlns:cc="http://creativecommons.org/ns#" filename="calculator.svg" transform="translate(544 144) scale(0.762 0.762) rotate(0 21 21)" stroke="none">
            
        <g>
                  
          <rect x="12.144" fill="none" width="17.618" y="9.46" height="4.481"/>
                  
          <path fill="none" d="M12.144,32.541h17.618V14.742H12.144V32.541z M25.056,19.821h2.373v1.199h-2.373V19.821z M25.056,23.765h2.373   v1.199h-2.373V23.765z M25.056,27.708h2.373v1.199h-2.373V27.708z M19.756,19.821h2.373v1.199h-2.373V19.821z M19.756,23.765h2.373   v1.199h-2.373V23.765z M19.756,27.708h2.373v1.199h-2.373V27.708z M14.456,19.821h2.373v1.199h-2.373V19.821z M14.456,23.765h2.373   v1.199h-2.373V23.765z M14.456,27.708h2.373v1.199h-2.373V27.708z"/>
                  
          <path fill="#0E3A5A" d="M10.444,7.761V34.24h21.019V7.761H10.444z M12.144,9.46h17.618v4.481H12.144V9.46z M29.762,32.541H12.144   V14.742h17.618V32.541z"/>
                  
          <rect x="14.456" fill="#0E3A5A" width="2.373" y="19.821" height="1.199"/>
                  
          <rect x="25.056" fill="#0E3A5A" width="2.373" y="19.821" height="1.199"/>
                  
          <rect x="19.756" fill="#0E3A5A" width="2.373" y="19.821" height="1.199"/>
                  
          <rect x="14.456" fill="#0E3A5A" width="2.373" y="23.765" height="1.199"/>
                  
          <rect x="25.056" fill="#0E3A5A" width="2.373" y="23.765" height="1.199"/>
                  
          <rect x="19.756" fill="#0E3A5A" width="2.373" y="23.765" height="1.199"/>
                  
          <rect x="14.456" fill="#0E3A5A" width="2.373" y="27.708" height="1.199"/>
                  
          <rect x="25.056" fill="#0E3A5A" width="2.373" y="27.708" height="1.199"/>
                  
          <rect x="19.756" fill="#0E3A5A" width="2.373" y="27.708" height="1.199"/>
              
        </g>
        
      </g>
      <rect x="543" y="143" fill="none" width="33" rx="4" ry="4" height="33"/>
      <text fill="black" x="538" xml:space="preserve" y="194" stroke="none">Calculator</text>
      <rect x="671" y="143" fill="white" width="33" rx="4" ry="4" height="33" stroke="none"/>
      <g xmlns:sodipodi="http://sodipodi.sourceforge.net/DTD/sodipodi-0.dtd" xmlns:rdf="http://www.w3.org/1999/02/22-rdf-syntax-ns#" xmlns:inkscape="http://www.inkscape.org/namespaces/inkscape" xmlns:dc="http://purl.org/dc/elements/1.1/" xmlns:cc="http://creativecommons.org/ns#" filename="selectvalues.svg" transform="translate(672 144) scale(0.762 0.762) rotate(0 21 21)" stroke="none">
            
        <g>
                  
          <rect x="4.82" fill="none" width="32.36" y="31.389" height="3.991"/>
                  
          <rect x="4.82" fill="none" width="15.33" y="6.62" height="3.991"/>
                  
          <rect x="4.82" fill="none" width="15.33" y="23.133" height="3.991"/>
                  
          <path fill="#0E3A5A" d="M21.85,4.921H3.12v7.39h18.73V4.921z M20.15,10.611H4.82V6.62h15.33V10.611z"/>
                  
          <rect x="4.82" fill="#C9E8FB" width="32.36" y="14.876" height="3.991"/>
                  
          <path fill="#0E3A5A" d="M3.12,13.177v7.39H38.88v-7.39H3.12z M37.18,18.867H4.82v-3.991h32.36V18.867z"/>
                  
          <path fill="#0E3A5A" d="M3.12,37.079H38.88v-7.39H3.12V37.079z M4.82,31.389h32.36v3.991H4.82V31.389z"/>
                  
          <path fill="#0E3A5A" d="M21.85,21.434H3.12v7.39h18.73V21.434z M20.15,27.124H4.82v-3.991h15.33V27.124z"/>
                  
          <polygon fill="#EA102A" points="25.948,12.587 28.847,9.688 31.745,12.587 33.089,11.243 30.19,8.345 33.089,5.446 31.745,4.103   28.847,7.001 25.948,4.103 24.604,5.446 27.503,8.345 24.604,11.243  "/>
                  
          <polygon fill="#EA102A" points="25.948,29.277 28.847,26.379 31.745,29.277 33.089,27.934 30.19,25.035 33.089,22.137   31.745,20.793 28.847,23.691 25.948,20.793 24.604,22.137 27.503,25.035 24.604,27.934  "/>
              
        </g>
        
      </g>
      <rect x="671" y="143" fill="none" width="33" rx="4" ry="4" height="33"/>
      <text fill="black" x="659" xml:space="preserve" y="194" stroke="none">Select values</text>
      <rect x="815" y="143" fill="white" width="33" rx="4" ry="4" height="33" stroke="none"/>
      <g xmlns:sodipodi="http://sodipodi.sourceforge.net/DTD/sodipodi-0.dtd" xmlns:rdf="http://www.w3.org/1999/02/22-rdf-syntax-ns#" xmlns:inkscape="http://www.inkscape.org/namespaces/inkscape" xmlns:dc="http://purl.org/dc/elements/1.1/" xmlns:cc="http://creativecommons.org/ns#" filename="normaliser.svg" transform="translate(816 144) scale(0.762 0.762) rotate(0 21 21)" stroke="none">
            
        <g>
                  
          <rect x="4.859" fill="none" width="15.388" y="19.663" height="4.525"/>
                  
          <rect x="4.859" fill="none" width="15.388" y="30.664" height="4.373"/>
                  
          <rect x="4.859" fill="none" width="15.388" y="24.989" height="4.874"/>
                  
          <path fill="#0E3A5A" d="M3.159,36.736h18.788V17.964H3.159V36.736z M4.859,35.037v-4.373h15.388v4.373H4.859z M4.859,29.863v-4.874   h15.388v4.874H4.859z M20.247,19.663v4.525H4.859v-4.525H20.247z"/>
                  
          <path fill="#5CC0C4" d="M31.96,16.837l-1.344,1.344l0.451,0.451c1.348,1.348,1.348,3.539,0,4.887l-3.205,3.205v-2.763h-1.9v6.007   h6.008v-1.9h-2.764l3.205-3.205c2.088-2.088,2.088-5.486,0-7.574L31.96,16.837z"/>
                  
          <rect x="30.204" fill="#0E3A5A" width="2.564" y="10.307" height="1.699"/>
                  
          <rect x="20.284" fill="#0E3A5A" width="1.792" y="4.313" height="1.677"/>
                  
          <rect x="23.076" fill="#0E3A5A" width="2.563" y="4.313" height="1.677"/>
                  
          <rect x="26.64" fill="#0E3A5A" width="2.564" y="4.313" height="1.677"/>
                  
          <rect x="20.284" fill="#0E3A5A" width="1.7" y="6.989" height="2.311"/>
                  
          <rect x="26.64" fill="#0E3A5A" width="2.564" y="10.307" height="1.699"/>
                  
          <rect x="23.076" fill="#0E3A5A" width="2.563" y="10.307" height="1.699"/>
                  
          <polygon fill="#0E3A5A" points="21.984,10.3 20.284,10.3 20.284,12.006 22.076,12.006 22.076,10.307 21.984,10.307  "/>
                  
          <rect x="37.372" fill="#0E3A5A" width="1.7" y="6.989" height="2.311"/>
                  
          <polygon fill="#0E3A5A" points="37.372,10.307 37.332,10.307 37.332,12.006 39.072,12.006 39.072,10.3 37.372,10.3  "/>
                  
          <rect x="33.769" fill="#0E3A5A" width="2.563" y="4.313" height="1.677"/>
                  
          <rect x="33.769" fill="#0E3A5A" width="2.563" y="10.307" height="1.699"/>
                  
          <rect x="37.332" fill="#0E3A5A" width="1.74" y="4.313" height="1.677"/>
                  
          <rect x="30.204" fill="#0E3A5A" width="2.564" y="4.313" height="1.677"/>
              
        </g>
        
      </g>
      <rect x="815" y="143" fill="none" width="33" rx="4" ry="4" height="33"/>
      <text fill="black" x="798" xml:space="preserve" y="194" stroke="none">Row normaliser</text>
      <rect x="815" y="271" fill="white" width="33" rx="4" ry="4" height="33" stroke="none"/>
      <g xmlns:sodipodi="http://sodipodi.sourceforge.net/DTD/sodipodi-0.dtd" xmlns:rdf="http://www.w3.org/1999/02/22-rdf-syntax-ns#" xmlns:inkscape="http://www.inkscape.org/namespaces/inkscape" xmlns:dc="http://purl.org/dc/elements/1.1/" xmlns:cc="http://creativecommons.org/ns#" filename="insertupdate.svg" transform="translate(816 272) scale(0.762 0.762) rotate(0 21 21)" stroke="none">
            
        <g>
                  
          <polygon fill="#0E3A5A" points="5.668,9.903 5.669,11.803 12.058,11.801 12.058,5.475 10.158,5.475 10.158,8.558 4.932,3.333   3.589,4.676 8.815,9.903  "/>
                  
          <path fill="#FFECCE" d="M27.197,31.287c1.713-0.45,2.088-0.961,2.088-1.12v-4.949c-1.728,0.868-4.829,1.104-6.663,1.167v3.326   v1.677v0.415l0.319,0.021c1.25-0.08,2.745-0.224,3.782-0.43C26.881,31.359,27.048,31.326,27.197,31.287z"/>
                  
          <path fill="#FFECCE" d="M29.284,12.37v-0.758c-0.192-0.52-3.05-1.479-8.05-1.479c-1.492,0-2.78,0.087-3.862,0.222l-2.598,2.598   c1.466,0.431,3.737,0.741,6.643,0.741C25.433,13.693,28.245,13.08,29.284,12.37z"/>
                  
          <path fill="#FFECCE" d="M21.416,19.48c2.265,0,4.362-0.202,5.907-0.567c0.885-0.21,1.553-0.472,1.961-0.753v-4.857   c-2.221,1.115-6.732,1.19-7.867,1.19c-2.35,0-4.553-0.212-6.204-0.597c-0.399-0.093-0.753-0.197-1.075-0.308l-0.771,0.771l0,3.791   C14.421,18.864,17.299,19.48,21.416,19.48z"/>
                  
          <path fill="#FFECCE" d="M15.213,19.683c-0.753-0.176-1.367-0.384-1.846-0.623v5.218c0.065,0.044,0.133,0.087,0.211,0.13h9.043   v1.173c1.794-0.059,3.437-0.241,4.702-0.541c0.885-0.21,1.553-0.472,1.961-0.753V19.09c-2.221,1.115-6.733,1.19-7.868,1.19   C19.067,20.28,16.864,20.068,15.213,19.683z"/>
                  
          <path fill="#0E3A5A" d="M21.235,8.432c-0.549,0-1.237,0.012-1.99,0.05l-1.872,1.872c1.082-0.135,2.37-0.222,3.862-0.222   c5,0,7.857,0.96,8.05,1.479v0.758c-1.04,0.71-3.851,1.323-7.867,1.323c-2.906,0-5.177-0.31-6.643-0.741l-0.636,0.636   c0.322,0.111,0.676,0.215,1.075,0.308c1.65,0.385,3.854,0.597,6.204,0.597c1.135,0,5.646-0.075,7.867-1.19v4.857   c-0.408,0.281-1.076,0.543-1.961,0.753c-1.545,0.365-3.643,0.567-5.907,0.567c-4.117,0-6.995-0.617-8.049-1.33l0-3.791l-1.7,1.7   v8.349H3.834v5.304v1.677h1.792v-1.677H5.534v-3.604h15.388v3.604h-0.04v1.677h1.74v-1.677v-3.326   c1.833-0.063,4.935-0.3,6.663-1.167v4.949c0,0.159-0.375,0.67-2.088,1.12c-0.149,0.039-0.315,0.072-0.474,0.107   c-1.037,0.207-2.532,0.35-3.782,0.43c-0.107,0.007-0.216,0.014-0.319,0.02v0.543h-1.7v2.311h1.7v-1.128   c1.898-0.067,3.649-0.283,5.006-0.639c2.227-0.585,3.356-1.516,3.356-2.765V11.612C30.985,8.662,23.522,8.432,21.235,8.432z    M29.284,24.288c-0.408,0.281-1.076,0.543-1.961,0.753c-1.265,0.299-2.908,0.481-4.702,0.541v-1.173h-9.043   c-0.078-0.043-0.147-0.086-0.211-0.13v-5.218c0.479,0.239,1.093,0.447,1.846,0.623c1.65,0.385,3.854,0.597,6.203,0.597   c1.135,0,5.647-0.075,7.868-1.19V24.288z"/>
                  
          <polygon fill="#C9E8FB" points="20.922,26.107 5.534,26.107 5.534,29.712 5.626,29.712 6.626,29.712 9.19,29.712 10.19,29.712   12.754,29.712 13.754,29.712 16.319,29.712 17.319,29.712 19.882,29.712 20.882,29.712 20.922,29.712  "/>
                  
          <rect x="5.534" fill="#C9E8FB" width="0.092" y="32.388" height="2.311"/>
                  
          <rect x="5.534" fill="#C9E8FB" width="0.092" y="35.699" height="0.007"/>
                  
          <rect x="6.626" fill="#C9E8FB" width="2.563" y="35.699" height="0.007"/>
                  
          <rect x="10.19" fill="#C9E8FB" width="2.564" y="35.699" height="0.007"/>
                  
          <rect x="20.882" fill="#C9E8FB" width="0.04" y="35.699" height="0.007"/>
                  
          <rect x="13.754" fill="#C9E8FB" width="2.564" y="35.699" height="0.007"/>
                  
          <rect x="17.319" fill="#C9E8FB" width="2.563" y="35.699" height="0.007"/>
                  
          <rect x="6.626" fill="#C9E8FB" width="2.563" y="32.388" height="2.311"/>
                  
          <rect x="10.19" fill="#C9E8FB" width="2.564" y="32.388" height="2.311"/>
                  
          <rect x="13.754" fill="#C9E8FB" width="2.564" y="32.388" height="2.311"/>
                  
          <rect x="17.319" fill="#C9E8FB" width="2.563" y="32.388" height="2.311"/>
                  
          <rect x="20.882" fill="#C9E8FB" width="0.04" y="32.388" height="2.311"/>
                  
          <rect x="6.626" fill="#0E3A5A" width="2.563" y="29.712" height="1.677"/>
                  
          <rect x="17.319" fill="#0E3A5A" width="2.563" y="29.712" height="1.677"/>
                  
          <rect x="13.754" fill="#0E3A5A" width="2.564" y="29.712" height="1.677"/>
                  
          <rect x="10.19" fill="#0E3A5A" width="2.564" y="29.712" height="1.677"/>
                  
          <rect x="13.754" fill="#0E3A5A" width="2.564" y="35.706" height="1.699"/>
                  
          <rect x="10.19" fill="#0E3A5A" width="2.564" y="35.706" height="1.699"/>
                  
          <rect x="6.626" fill="#0E3A5A" width="2.563" y="35.706" height="1.699"/>
                  
          <rect x="3.834" fill="#0E3A5A" width="1.7" y="32.388" height="2.311"/>
                  
          <rect x="17.319" fill="#0E3A5A" width="2.563" y="35.706" height="1.699"/>
                  
          <polygon fill="#0E3A5A" points="20.922,35.706 20.882,35.706 20.882,37.405 22.622,37.405 22.622,35.699 20.922,35.699  "/>
                  
          <polygon fill="#0E3A5A" points="5.534,35.699 3.834,35.699 3.834,37.405 5.626,37.405 5.626,35.706 5.534,35.706  "/>
              
        </g>
        
      </g>
      <rect x="815" y="271" fill="none" width="33" rx="4" ry="4" height="33"/>
      <text fill="black" x="801" xml:space="preserve" y="322" stroke="none">Insert / update</text>
    </g>
  </g>
</svg>
